<svg id="图层_1" data-name="图层 1" xmlns="http://www.w3.org/2000/svg" viewBox="0 0 1557.68 904.4"><defs><style>.cls-1{fill:#fff;}.cls-2{fill:#cfcfcf;}.cls-3{fill:#b9b9b9;}.cls-4{fill:#bdbdbd;}.cls-5{fill:#c7c7c7;}.cls-6{fill:#bcbcbc;}.cls-7{fill:#c3c3c3;}.cls-8{fill:#d9d9d9;}.cls-9{fill:#bebebe;}.cls-10{fill:#d6d6d6;}.cls-11{fill:#bababa;}.cls-12{fill:#c2c2c2;}.cls-13{fill:#c5c5c5;}.cls-14{fill:#bbb;}.cls-15{fill:#bfbfbf;}.cls-16{fill:#cbcbcb;}.cls-17{fill:#dfdfdf;}.cls-18{fill:#d1d1d1;}.cls-19{fill:#f9f9f9;}.cls-20{fill:#d7d7d7;}.cls-21{fill:#dadada;}.cls-22{fill:#ececec;}.cls-23{fill:#d3d3d3;}.cls-24{fill:#cdcdcd;}.cls-25{fill:#e1e1e1;}.cls-26{fill:#c4c4c4;}.cls-27{fill:#f6f6f6;}.cls-28{fill:#e0e0e0;}.cls-29{fill:silver;}.cls-30{fill:#ccc;}.cls-31{fill:#c6c6c6;}.cls-32{fill:#c8c8c8;}.cls-33{fill:#ddd;}.cls-34{fill:#c1c1c1;}.cls-35{fill:#d0d0d0;}.cls-36{fill:#f5f5f5;}.cls-37{fill:#cecece;}.cls-38{fill:#e4e4e4;}.cls-39{fill:#c1272d;}.cls-40{fill:#e2e2e2;}.cls-41{fill:#d2d2d2;}.cls-42{fill:#d5d5d5;}.cls-43{fill:#cacaca;}.cls-44{fill:#c9c9c9;}.cls-45{fill:#e7e7e7;}.cls-46{fill:#fcfcfc;}.cls-47{fill:#eaeaea;}.cls-48{fill:#f2f2f2;}.cls-49{fill:#e3e3e3;}.cls-50{fill:#dbdbdb;}.cls-51{fill:#b5b5b5;}.cls-52{fill:#f8f8f8;}.cls-53{fill:#dcdcdc;}</style></defs><g id="dbC1Bd.tif"><path class="cls-1" d="M1584.11,1010.2h0" transform="translate(-165.67 -105.8)"/><path class="cls-2" d="M1584.11,888c15.1.19,15.1-24,0-23.85C1569,864,1569,888.19,1584.11,888Z" transform="translate(-165.67 -105.8)"/><path class="cls-3" d="M1584.11,855.41c15.1.19,15.1-24,0-23.85C1569,831.37,1569,855.6,1584.11,855.41Z" transform="translate(-165.67 -105.8)"/><path class="cls-1" d="M944.51,831.56h0" transform="translate(-165.67 -105.8)"/><path class="cls-3" d="M1584.11,822.82c15.1.19,15.1-24,0-23.85C1569,798.78,1569,823,1584.11,822.82Z" transform="translate(-165.67 -105.8)"/><path class="cls-4" d="M944.51,822.82c15.1.19,15.1-24,0-23.85C929.41,798.78,929.41,823,944.51,822.82Z" transform="translate(-165.67 -105.8)"/><path class="cls-5" d="M1648.07,790.22c15.1.2,15.1-24,0-23.84C1633,766.18,1633,790.42,1648.07,790.22Z" transform="translate(-165.67 -105.8)"/><path class="cls-3" d="M1616.09,790.22c15.1.2,15.1-24,0-23.84C1601,766.18,1601,790.42,1616.09,790.22Z" transform="translate(-165.67 -105.8)"/><path class="cls-6" d="M1584.11,790.22c15.1.2,15.1-24,0-23.84C1569,766.18,1569,790.42,1584.11,790.22Z" transform="translate(-165.67 -105.8)"/><path class="cls-3" d="M944.51,790.22c15.1.2,15.1-24,0-23.84C929.41,766.18,929.41,790.42,944.51,790.22Z" transform="translate(-165.67 -105.8)"/><path class="cls-7" d="M912.53,790.22c15.1.2,15.1-24,0-23.84C897.43,766.18,897.43,790.42,912.53,790.22Z" transform="translate(-165.67 -105.8)"/><path class="cls-8" d="M848.57,790.22c15.1.2,15.1-24,0-23.84C833.47,766.18,833.47,790.42,848.57,790.22Z" transform="translate(-165.67 -105.8)"/><path class="cls-4" d="M816.59,790.22c15.1.2,15.1-24,0-23.84C801.49,766.18,801.49,790.42,816.59,790.22Z" transform="translate(-165.67 -105.8)"/><path class="cls-9" d="M400.85,790.22c15.1.2,15.1-24,0-23.84C385.75,766.18,385.75,790.42,400.85,790.22Z" transform="translate(-165.67 -105.8)"/><path class="cls-7" d="M1648.07,757.63c15.1.2,15.1-24,0-23.84C1633,733.59,1633,757.83,1648.07,757.63Z" transform="translate(-165.67 -105.8)"/><path class="cls-3" d="M1616.09,757.63c15.1.2,15.1-24,0-23.84C1601,733.59,1601,757.83,1616.09,757.63Z" transform="translate(-165.67 -105.8)"/><path class="cls-5" d="M1584.11,757.63c15.1.2,15.1-24,0-23.84C1569,733.59,1569,757.83,1584.11,757.63Z" transform="translate(-165.67 -105.8)"/><path class="cls-9" d="M976.49,757.63c15.1.2,15.1-24,0-23.84C961.39,733.59,961.39,757.83,976.49,757.63Z" transform="translate(-165.67 -105.8)"/><path class="cls-3" d="M944.51,757.63c15.1.2,15.1-24,0-23.84C929.41,733.59,929.41,757.83,944.51,757.63Z" transform="translate(-165.67 -105.8)"/><path class="cls-3" d="M912.53,757.63c15.1.2,15.1-24,0-23.84C897.43,733.59,897.43,757.83,912.53,757.63Z" transform="translate(-165.67 -105.8)"/><path class="cls-3" d="M880.55,757.63c15.1.2,15.1-24,0-23.84C865.45,733.59,865.45,757.83,880.55,757.63Z" transform="translate(-165.67 -105.8)"/><path class="cls-3" d="M848.57,757.63c15.1.2,15.1-24,0-23.84C833.47,733.59,833.47,757.83,848.57,757.63Z" transform="translate(-165.67 -105.8)"/><path class="cls-3" d="M816.59,757.63c15.1.2,15.1-24,0-23.84C801.49,733.59,801.49,757.83,816.59,757.63Z" transform="translate(-165.67 -105.8)"/><path class="cls-1" d="M496.79,733.79h0" transform="translate(-165.67 -105.8)"/><path class="cls-3" d="M432.83,757.63c15.1.2,15.1-24,0-23.84C417.73,733.59,417.73,757.83,432.83,757.63Z" transform="translate(-165.67 -105.8)"/><path class="cls-3" d="M400.85,757.63c15.1.2,15.1-24,0-23.84C385.75,733.59,385.75,757.83,400.85,757.63Z" transform="translate(-165.67 -105.8)"/><path class="cls-10" d="M368.87,757.63c15.1.2,15.1-24,0-23.84C353.77,733.59,353.77,757.83,368.87,757.63Z" transform="translate(-165.67 -105.8)"/><path class="cls-11" d="M1712,725c15.1.19,15.1-24,0-23.85C1696.93,701,1696.93,725.23,1712,725Z" transform="translate(-165.67 -105.8)"/><path class="cls-3" d="M1680.05,725c15.1.19,15.1-24,0-23.85C1665,701,1665,725.23,1680.05,725Z" transform="translate(-165.67 -105.8)"/><path class="cls-3" d="M1648.07,725c15.1.19,15.1-24,0-23.85C1633,701,1633,725.23,1648.07,725Z" transform="translate(-165.67 -105.8)"/><path class="cls-12" d="M1616.09,725c15.1.19,15.1-24,0-23.85C1601,701,1601,725.23,1616.09,725Z" transform="translate(-165.67 -105.8)"/><path class="cls-13" d="M1584.11,725c15.1.19,15.1-24,0-23.85C1569,701,1569,725.23,1584.11,725Z" transform="translate(-165.67 -105.8)"/><path class="cls-14" d="M944.51,725c15.1.19,15.1-24,0-23.85C929.41,701,929.41,725.23,944.51,725Z" transform="translate(-165.67 -105.8)"/><path class="cls-3" d="M912.53,725c15.1.19,15.1-24,0-23.85C897.43,701,897.43,725.23,912.53,725Z" transform="translate(-165.67 -105.8)"/><path class="cls-3" d="M880.55,725c15.1.19,15.1-24,0-23.85C865.45,701,865.45,725.23,880.55,725Z" transform="translate(-165.67 -105.8)"/><path class="cls-3" d="M848.57,725c15.1.19,15.1-24,0-23.85C833.47,701,833.47,725.23,848.57,725Z" transform="translate(-165.67 -105.8)"/><path class="cls-1" d="M816.59,725c15.1.19,15.1-24,0-23.85C801.49,701,801.49,725.23,816.59,725Z" transform="translate(-165.67 -105.8)"/><path class="cls-15" d="M496.79,725c15.1.19,15.1-24,0-23.85C481.69,701,481.69,725.23,496.79,725Z" transform="translate(-165.67 -105.8)"/><path class="cls-3" d="M432.83,725c15.1.19,15.1-24,0-23.85C417.73,701,417.73,725.23,432.83,725Z" transform="translate(-165.67 -105.8)"/><path class="cls-3" d="M400.85,725c15.1.19,15.1-24,0-23.85C385.75,701,385.75,725.23,400.85,725Z" transform="translate(-165.67 -105.8)"/><path class="cls-3" d="M368.87,725c15.1.19,15.1-24,0-23.85C353.77,701,353.77,725.23,368.87,725Z" transform="translate(-165.67 -105.8)"/><path class="cls-3" d="M1712,692.45c15.1.19,15.1-24,0-23.85C1696.93,668.41,1696.93,692.64,1712,692.45Z" transform="translate(-165.67 -105.8)"/><path class="cls-3" d="M1680.05,692.45c15.1.19,15.1-24,0-23.85C1665,668.41,1665,692.64,1680.05,692.45Z" transform="translate(-165.67 -105.8)"/><path class="cls-3" d="M1648.07,692.45c15.1.19,15.1-24,0-23.85C1633,668.41,1633,692.64,1648.07,692.45Z" transform="translate(-165.67 -105.8)"/><path class="cls-3" d="M1616.09,692.45c15.1.19,15.1-24,0-23.85C1601,668.41,1601,692.64,1616.09,692.45Z" transform="translate(-165.67 -105.8)"/><path class="cls-16" d="M1584.11,692.45c15.1.19,15.1-24,0-23.85C1569,668.41,1569,692.64,1584.11,692.45Z" transform="translate(-165.67 -105.8)"/><path class="cls-3" d="M1552.13,692.45c15.1.19,15.1-24,0-23.85C1537,668.41,1537,692.64,1552.13,692.45Z" transform="translate(-165.67 -105.8)"/><path class="cls-17" d="M880.55,692.45c15.1.19,15.1-24,0-23.85C865.45,668.41,865.45,692.64,880.55,692.45Z" transform="translate(-165.67 -105.8)"/><path class="cls-18" d="M848.57,692.45c15.1.19,15.1-24,0-23.85C833.47,668.41,833.47,692.64,848.57,692.45Z" transform="translate(-165.67 -105.8)"/><path class="cls-19" d="M496.79,692.45c15.1.19,15.1-24,0-23.85C481.69,668.41,481.69,692.64,496.79,692.45Z" transform="translate(-165.67 -105.8)"/><path class="cls-7" d="M464.81,692.45c15.1.19,15.1-24,0-23.85C449.71,668.41,449.71,692.64,464.81,692.45Z" transform="translate(-165.67 -105.8)"/><path class="cls-4" d="M432.83,692.45c15.1.19,15.1-24,0-23.85C417.73,668.41,417.73,692.64,432.83,692.45Z" transform="translate(-165.67 -105.8)"/><path class="cls-7" d="M400.85,692.45c15.1.19,15.1-24,0-23.85C385.75,668.41,385.75,692.64,400.85,692.45Z" transform="translate(-165.67 -105.8)"/><path class="cls-3" d="M368.87,692.45c15.1.19,15.1-24,0-23.85C353.77,668.41,353.77,692.64,368.87,692.45Z" transform="translate(-165.67 -105.8)"/><path class="cls-12" d="M1712,659.86c15.1.19,15.1-24,0-23.85C1696.93,635.82,1696.93,660.05,1712,659.86Z" transform="translate(-165.67 -105.8)"/><path class="cls-3" d="M1680.05,659.86c15.1.19,15.1-24,0-23.85C1665,635.82,1665,660.05,1680.05,659.86Z" transform="translate(-165.67 -105.8)"/><path class="cls-3" d="M1648.07,659.86c15.1.19,15.1-24,0-23.85C1633,635.82,1633,660.05,1648.07,659.86Z" transform="translate(-165.67 -105.8)"/><path class="cls-3" d="M1616.09,659.86c15.1.19,15.1-24,0-23.85C1601,635.82,1601,660.05,1616.09,659.86Z" transform="translate(-165.67 -105.8)"/><path class="cls-9" d="M1584.11,659.86c15.1.19,15.1-24,0-23.85C1569,635.82,1569,660.05,1584.11,659.86Z" transform="translate(-165.67 -105.8)"/><path class="cls-9" d="M1552.13,659.86c15.1.19,15.1-24,0-23.85C1537,635.82,1537,660.05,1552.13,659.86Z" transform="translate(-165.67 -105.8)"/><path class="cls-20" d="M976.49,659.86c15.1.19,15.1-24,0-23.85C961.39,635.82,961.39,660.05,976.49,659.86Z" transform="translate(-165.67 -105.8)"/><path class="cls-3" d="M912.53,659.86c15.1.19,15.1-24,0-23.85C897.43,635.82,897.43,660.05,912.53,659.86Z" transform="translate(-165.67 -105.8)"/><path class="cls-8" d="M880.55,659.86c15.1.19,15.1-24,0-23.85C865.45,635.82,865.45,660.05,880.55,659.86Z" transform="translate(-165.67 -105.8)"/><path class="cls-1" d="M848.57,659.86c15.1.19,15.1-24,0-23.85C833.47,635.82,833.47,660.05,848.57,659.86Z" transform="translate(-165.67 -105.8)"/><path class="cls-21" d="M816.59,659.86c15.1.19,15.1-24,0-23.85C801.49,635.82,801.49,660.05,816.59,659.86Z" transform="translate(-165.67 -105.8)"/><path class="cls-22" d="M784.61,659.86c15.1.19,15.1-24,0-23.85C769.51,635.82,769.51,660.05,784.61,659.86Z" transform="translate(-165.67 -105.8)"/><path class="cls-15" d="M752.63,659.86c15.1.19,15.1-24,0-23.85C737.53,635.82,737.53,660.05,752.63,659.86Z" transform="translate(-165.67 -105.8)"/><path class="cls-9" d="M464.81,659.86c15.1.19,15.1-24,0-23.85C449.71,635.82,449.71,660.05,464.81,659.86Z" transform="translate(-165.67 -105.8)"/><path class="cls-16" d="M432.83,659.86c15.1.19,15.1-24,0-23.85C417.73,635.82,417.73,660.05,432.83,659.86Z" transform="translate(-165.67 -105.8)"/><path class="cls-3" d="M400.85,659.86c15.1.19,15.1-24,0-23.85C385.75,635.82,385.75,660.05,400.85,659.86Z" transform="translate(-165.67 -105.8)"/><path class="cls-9" d="M368.87,659.86c15.1.19,15.1-24,0-23.85C353.77,635.82,353.77,660.05,368.87,659.86Z" transform="translate(-165.67 -105.8)"/><path class="cls-1" d="M304.91,636h0" transform="translate(-165.67 -105.8)"/><path class="cls-1" d="M272.93,636h0" transform="translate(-165.67 -105.8)"/><path class="cls-1" d="M1712,627.27h0" transform="translate(-165.67 -105.8)"/><path class="cls-1" d="M1680.05,627.27h0" transform="translate(-165.67 -105.8)"/><path class="cls-11" d="M1648.07,627.27c15.1.19,15.1-24,0-23.85C1633,603.23,1633,627.46,1648.07,627.27Z" transform="translate(-165.67 -105.8)"/><path class="cls-13" d="M1616.09,627.27c15.1.19,15.1-24,0-23.85C1601,603.23,1601,627.46,1616.09,627.27Z" transform="translate(-165.67 -105.8)"/><path class="cls-7" d="M1584.11,627.27c15.1.19,15.1-24,0-23.85C1569,603.23,1569,627.46,1584.11,627.27Z" transform="translate(-165.67 -105.8)"/><path class="cls-3" d="M1552.13,627.27c15.1.19,15.1-24,0-23.85C1537,603.23,1537,627.46,1552.13,627.27Z" transform="translate(-165.67 -105.8)"/><path class="cls-1" d="M976.49,627.27h0" transform="translate(-165.67 -105.8)"/><path class="cls-1" d="M912.53,627.27h0" transform="translate(-165.67 -105.8)"/><path class="cls-1" d="M880.55,627.27h0" transform="translate(-165.67 -105.8)"/><path class="cls-8" d="M848.57,627.27c15.1.19,15.1-24,0-23.85C833.47,603.23,833.47,627.46,848.57,627.27Z" transform="translate(-165.67 -105.8)"/><path class="cls-5" d="M816.59,627.27c15.1.19,15.1-24,0-23.85C801.49,603.23,801.49,627.46,816.59,627.27Z" transform="translate(-165.67 -105.8)"/><path class="cls-9" d="M752.63,627.27c15.1.19,15.1-24,0-23.85C737.53,603.23,737.53,627.46,752.63,627.27Z" transform="translate(-165.67 -105.8)"/><path class="cls-23" d="M720.65,627.27c15.1.19,15.1-24,0-23.85C705.55,603.23,705.55,627.46,720.65,627.27Z" transform="translate(-165.67 -105.8)"/><path class="cls-1" d="M688.67,627.27c15.1.19,15.1-24,0-23.85C673.57,603.23,673.57,627.46,688.67,627.27Z" transform="translate(-165.67 -105.8)"/><path class="cls-24" d="M656.69,627.27c15.1.19,15.1-24,0-23.85C641.59,603.23,641.59,627.46,656.69,627.27Z" transform="translate(-165.67 -105.8)"/><path class="cls-25" d="M624.71,627.27c15.1.19,15.1-24,0-23.85C609.61,603.23,609.61,627.46,624.71,627.27Z" transform="translate(-165.67 -105.8)"/><path class="cls-15" d="M496.79,627.27c15.1.19,15.1-24,0-23.85C481.69,603.23,481.69,627.46,496.79,627.27Z" transform="translate(-165.67 -105.8)"/><path class="cls-6" d="M464.81,627.27c15.1.19,15.1-24,0-23.85C449.71,603.23,449.71,627.46,464.81,627.27Z" transform="translate(-165.67 -105.8)"/><path class="cls-3" d="M432.83,627.27c15.1.19,15.1-24,0-23.85C417.73,603.23,417.73,627.46,432.83,627.27Z" transform="translate(-165.67 -105.8)"/><path class="cls-11" d="M400.85,627.27c15.1.19,15.1-24,0-23.85C385.75,603.23,385.75,627.46,400.85,627.27Z" transform="translate(-165.67 -105.8)"/><path class="cls-26" d="M368.87,627.27c15.1.19,15.1-24,0-23.85C353.77,603.23,353.77,627.46,368.87,627.27Z" transform="translate(-165.67 -105.8)"/><path class="cls-11" d="M336.89,627.27c15.1.19,15.1-24,0-23.85C321.79,603.23,321.79,627.46,336.89,627.27Z" transform="translate(-165.67 -105.8)"/><path class="cls-9" d="M304.91,627.27c15.1.19,15.1-24,0-23.85C289.81,603.23,289.81,627.46,304.91,627.27Z" transform="translate(-165.67 -105.8)"/><path class="cls-12" d="M272.93,627.27c15.1.19,15.1-24,0-23.85C257.83,603.23,257.83,627.46,272.93,627.27Z" transform="translate(-165.67 -105.8)"/><path class="cls-20" d="M1616.09,594.67c15.1.2,15.1-24,0-23.84C1601,570.63,1601,594.87,1616.09,594.67Z" transform="translate(-165.67 -105.8)"/><path class="cls-15" d="M1520.15,594.67c15.1.2,15.1-24,0-23.84C1505.05,570.63,1505.05,594.87,1520.15,594.67Z" transform="translate(-165.67 -105.8)"/><path class="cls-27" d="M1488.17,594.67c15.1.2,15.1-24,0-23.84C1473.07,570.63,1473.07,594.87,1488.17,594.67Z" transform="translate(-165.67 -105.8)"/><path class="cls-28" d="M848.57,594.67c15.1.2,15.1-24,0-23.84C833.47,570.63,833.47,594.87,848.57,594.67Z" transform="translate(-165.67 -105.8)"/><path class="cls-29" d="M784.61,594.67c15.1.2,15.1-24,0-23.84C769.51,570.63,769.51,594.87,784.61,594.67Z" transform="translate(-165.67 -105.8)"/><path class="cls-16" d="M752.63,594.67c15.1.2,15.1-24,0-23.84C737.53,570.63,737.53,594.87,752.63,594.67Z" transform="translate(-165.67 -105.8)"/><path class="cls-1" d="M720.65,594.67c15.1.2,15.1-24,0-23.84C705.55,570.63,705.55,594.87,720.65,594.67Z" transform="translate(-165.67 -105.8)"/><path class="cls-1" d="M688.67,594.67c15.1.2,15.1-24,0-23.84C673.57,570.63,673.57,594.87,688.67,594.67Z" transform="translate(-165.67 -105.8)"/><path class="cls-4" d="M656.69,594.67c15.1.2,15.1-24,0-23.84C641.59,570.63,641.59,594.87,656.69,594.67Z" transform="translate(-165.67 -105.8)"/><path class="cls-1" d="M624.71,594.67c15.1.2,15.1-24,0-23.84C609.61,570.63,609.61,594.87,624.71,594.67Z" transform="translate(-165.67 -105.8)"/><path class="cls-30" d="M496.79,594.67c15.1.2,15.1-24,0-23.84C481.69,570.63,481.69,594.87,496.79,594.67Z" transform="translate(-165.67 -105.8)"/><path class="cls-29" d="M464.81,594.67c15.1.2,15.1-24,0-23.84C449.71,570.63,449.71,594.87,464.81,594.67Z" transform="translate(-165.67 -105.8)"/><path class="cls-3" d="M432.83,594.67c15.1.2,15.1-24,0-23.84C417.73,570.63,417.73,594.87,432.83,594.67Z" transform="translate(-165.67 -105.8)"/><path class="cls-31" d="M400.85,594.67c15.1.2,15.1-24,0-23.84C385.75,570.63,385.75,594.87,400.85,594.67Z" transform="translate(-165.67 -105.8)"/><path class="cls-32" d="M368.87,594.67c15.1.2,15.1-24,0-23.84C353.77,570.63,353.77,594.87,368.87,594.67Z" transform="translate(-165.67 -105.8)"/><path class="cls-7" d="M336.89,594.67c15.1.2,15.1-24,0-23.84C321.79,570.63,321.79,594.87,336.89,594.67Z" transform="translate(-165.67 -105.8)"/><path class="cls-15" d="M304.91,594.67c15.1.2,15.1-24,0-23.84C289.81,570.63,289.81,594.87,304.91,594.67Z" transform="translate(-165.67 -105.8)"/><path class="cls-3" d="M272.93,594.67c15.1.2,15.1-24,0-23.84C257.83,570.63,257.83,594.87,272.93,594.67Z" transform="translate(-165.67 -105.8)"/><path class="cls-23" d="M241,594.67c15.1.2,15.1-24,0-23.84C225.85,570.63,225.85,594.87,241,594.67Z" transform="translate(-165.67 -105.8)"/><path class="cls-18" d="M1552.13,562.08c15.1.2,15.1-24,0-23.84C1537,538,1537,562.28,1552.13,562.08Z" transform="translate(-165.67 -105.8)"/><path class="cls-23" d="M1520.15,562.08c15.1.2,15.1-24,0-23.84C1505.05,538,1505.05,562.28,1520.15,562.08Z" transform="translate(-165.67 -105.8)"/><path class="cls-33" d="M1488.17,562.08c15.1.2,15.1-24,0-23.84C1473.07,538,1473.07,562.28,1488.17,562.08Z" transform="translate(-165.67 -105.8)"/><path class="cls-4" d="M1456.19,562.08c15.1.2,15.1-24,0-23.84C1441.09,538,1441.09,562.28,1456.19,562.08Z" transform="translate(-165.67 -105.8)"/><path class="cls-4" d="M1424.21,562.08c15.1.2,15.1-24,0-23.84C1409.11,538,1409.11,562.28,1424.21,562.08Z" transform="translate(-165.67 -105.8)"/><path class="cls-15" d="M784.61,562.08c15.1.2,15.1-24,0-23.84C769.51,538,769.51,562.28,784.61,562.08Z" transform="translate(-165.67 -105.8)"/><path class="cls-24" d="M752.63,562.08c15.1.2,15.1-24,0-23.84C737.53,538,737.53,562.28,752.63,562.08Z" transform="translate(-165.67 -105.8)"/><path class="cls-3" d="M720.65,562.08c15.1.2,15.1-24,0-23.84C705.55,538,705.55,562.28,720.65,562.08Z" transform="translate(-165.67 -105.8)"/><path class="cls-9" d="M688.67,562.08c15.1.2,15.1-24,0-23.84C673.57,538,673.57,562.28,688.67,562.08Z" transform="translate(-165.67 -105.8)"/><path class="cls-3" d="M656.69,562.08c15.1.2,15.1-24,0-23.84C641.59,538,641.59,562.28,656.69,562.08Z" transform="translate(-165.67 -105.8)"/><path class="cls-32" d="M624.71,562.08c15.1.2,15.1-24,0-23.84C609.61,538,609.61,562.28,624.71,562.08Z" transform="translate(-165.67 -105.8)"/><path class="cls-9" d="M560.75,562.08c15.1.2,15.1-24,0-23.84C545.65,538,545.65,562.28,560.75,562.08Z" transform="translate(-165.67 -105.8)"/><path class="cls-3" d="M528.77,562.08c15.1.2,15.1-24,0-23.84C513.67,538,513.67,562.28,528.77,562.08Z" transform="translate(-165.67 -105.8)"/><path class="cls-3" d="M496.79,562.08c15.1.2,15.1-24,0-23.84C481.69,538,481.69,562.28,496.79,562.08Z" transform="translate(-165.67 -105.8)"/><path class="cls-34" d="M464.81,562.08c15.1.2,15.1-24,0-23.84C449.71,538,449.71,562.28,464.81,562.08Z" transform="translate(-165.67 -105.8)"/><path class="cls-7" d="M432.83,562.08c15.1.2,15.1-24,0-23.84C417.73,538,417.73,562.28,432.83,562.08Z" transform="translate(-165.67 -105.8)"/><path class="cls-11" d="M400.85,562.08c15.1.2,15.1-24,0-23.84C385.75,538,385.75,562.28,400.85,562.08Z" transform="translate(-165.67 -105.8)"/><path class="cls-26" d="M368.87,562.08c15.1.2,15.1-24,0-23.84C353.77,538,353.77,562.28,368.87,562.08Z" transform="translate(-165.67 -105.8)"/><path class="cls-34" d="M336.89,562.08c15.1.2,15.1-24,0-23.84C321.79,538,321.79,562.28,336.89,562.08Z" transform="translate(-165.67 -105.8)"/><path class="cls-13" d="M304.91,562.08c15.1.2,15.1-24,0-23.84C289.81,538,289.81,562.28,304.91,562.08Z" transform="translate(-165.67 -105.8)"/><path class="cls-4" d="M272.93,562.08c15.1.2,15.1-24,0-23.84C257.83,538,257.83,562.28,272.93,562.08Z" transform="translate(-165.67 -105.8)"/><path class="cls-7" d="M241,562.08c15.1.2,15.1-24,0-23.84C225.85,538,225.85,562.28,241,562.08Z" transform="translate(-165.67 -105.8)"/><path class="cls-6" d="M1520.15,529.49c15.1.19,15.1-24,0-23.85C1505.05,505.45,1505.05,529.68,1520.15,529.49Z" transform="translate(-165.67 -105.8)"/><path class="cls-35" d="M1488.17,529.49c15.1.19,15.1-24,0-23.85C1473.07,505.45,1473.07,529.68,1488.17,529.49Z" transform="translate(-165.67 -105.8)"/><path class="cls-3" d="M1456.19,529.49c15.1.19,15.1-24,0-23.85C1441.09,505.45,1441.09,529.68,1456.19,529.49Z" transform="translate(-165.67 -105.8)"/><path class="cls-34" d="M1424.21,529.49c15.1.19,15.1-24,0-23.85C1409.11,505.45,1409.11,529.68,1424.21,529.49Z" transform="translate(-165.67 -105.8)"/><path class="cls-14" d="M1392.23,529.49c15.1.19,15.1-24,0-23.85C1377.13,505.45,1377.13,529.68,1392.23,529.49Z" transform="translate(-165.67 -105.8)"/><path class="cls-1" d="M912.53,505.64h0" transform="translate(-165.67 -105.8)"/><path class="cls-3" d="M816.59,529.49c15.1.19,15.1-24,0-23.85C801.49,505.45,801.49,529.68,816.59,529.49Z" transform="translate(-165.67 -105.8)"/><path class="cls-3" d="M784.61,529.49c15.1.19,15.1-24,0-23.85C769.51,505.45,769.51,529.68,784.61,529.49Z" transform="translate(-165.67 -105.8)"/><path class="cls-3" d="M752.63,529.49c15.1.19,15.1-24,0-23.85C737.53,505.45,737.53,529.68,752.63,529.49Z" transform="translate(-165.67 -105.8)"/><path class="cls-7" d="M720.65,529.49c15.1.19,15.1-24,0-23.85C705.55,505.45,705.55,529.68,720.65,529.49Z" transform="translate(-165.67 -105.8)"/><path class="cls-3" d="M688.67,529.49c15.1.19,15.1-24,0-23.85C673.57,505.45,673.57,529.68,688.67,529.49Z" transform="translate(-165.67 -105.8)"/><path class="cls-13" d="M656.69,529.49c15.1.19,15.1-24,0-23.85C641.59,505.45,641.59,529.68,656.69,529.49Z" transform="translate(-165.67 -105.8)"/><path class="cls-31" d="M624.71,529.49c15.1.19,15.1-24,0-23.85C609.61,505.45,609.61,529.68,624.71,529.49Z" transform="translate(-165.67 -105.8)"/><path class="cls-13" d="M592.73,529.49c15.1.19,15.1-24,0-23.85C577.63,505.45,577.63,529.68,592.73,529.49Z" transform="translate(-165.67 -105.8)"/><path class="cls-3" d="M560.75,529.49c15.1.19,15.1-24,0-23.85C545.65,505.45,545.65,529.68,560.75,529.49Z" transform="translate(-165.67 -105.8)"/><path class="cls-14" d="M528.77,529.49c15.1.19,15.1-24,0-23.85C513.67,505.45,513.67,529.68,528.77,529.49Z" transform="translate(-165.67 -105.8)"/><path class="cls-13" d="M496.79,529.49c15.1.19,15.1-24,0-23.85C481.69,505.45,481.69,529.68,496.79,529.49Z" transform="translate(-165.67 -105.8)"/><path class="cls-13" d="M464.81,529.49c15.1.19,15.1-24,0-23.85C449.71,505.45,449.71,529.68,464.81,529.49Z" transform="translate(-165.67 -105.8)"/><path class="cls-3" d="M432.83,529.49c15.1.19,15.1-24,0-23.85C417.73,505.45,417.73,529.68,432.83,529.49Z" transform="translate(-165.67 -105.8)"/><path class="cls-3" d="M400.85,529.49c15.1.19,15.1-24,0-23.85C385.75,505.45,385.75,529.68,400.85,529.49Z" transform="translate(-165.67 -105.8)"/><path class="cls-3" d="M368.87,529.49c15.1.19,15.1-24,0-23.85C353.77,505.45,353.77,529.68,368.87,529.49Z" transform="translate(-165.67 -105.8)"/><path class="cls-3" d="M336.89,529.49c15.1.19,15.1-24,0-23.85C321.79,505.45,321.79,529.68,336.89,529.49Z" transform="translate(-165.67 -105.8)"/><path class="cls-3" d="M304.91,529.49c15.1.19,15.1-24,0-23.85C289.81,505.45,289.81,529.68,304.91,529.49Z" transform="translate(-165.67 -105.8)"/><path class="cls-26" d="M272.93,529.49c15.1.19,15.1-24,0-23.85C257.83,505.45,257.83,529.68,272.93,529.49Z" transform="translate(-165.67 -105.8)"/><path class="cls-36" d="M241,529.49c15.1.19,15.1-24,0-23.85C225.85,505.45,225.85,529.68,241,529.49Z" transform="translate(-165.67 -105.8)"/><path class="cls-15" d="M1552.13,496.9c15.1.19,15.1-24,0-23.85C1537,472.86,1537,497.09,1552.13,496.9Z" transform="translate(-165.67 -105.8)"/><path class="cls-3" d="M1520.15,496.9c15.1.19,15.1-24,0-23.85C1505.05,472.86,1505.05,497.09,1520.15,496.9Z" transform="translate(-165.67 -105.8)"/><path class="cls-3" d="M1488.17,496.9c15.1.19,15.1-24,0-23.85C1473.07,472.86,1473.07,497.09,1488.17,496.9Z" transform="translate(-165.67 -105.8)"/><path class="cls-3" d="M1456.19,496.9c15.1.19,15.1-24,0-23.85C1441.09,472.86,1441.09,497.09,1456.19,496.9Z" transform="translate(-165.67 -105.8)"/><path class="cls-3" d="M1424.21,496.9c15.1.19,15.1-24,0-23.85C1409.11,472.86,1409.11,497.09,1424.21,496.9Z" transform="translate(-165.67 -105.8)"/><path class="cls-3" d="M1392.23,496.9c15.1.19,15.1-24,0-23.85C1377.13,472.86,1377.13,497.09,1392.23,496.9Z" transform="translate(-165.67 -105.8)"/><path class="cls-3" d="M1360.25,496.9c15.1.19,15.1-24,0-23.85C1345.15,472.86,1345.15,497.09,1360.25,496.9Z" transform="translate(-165.67 -105.8)"/><path class="cls-11" d="M912.53,496.9c15.1.19,15.1-24,0-23.85C897.43,472.86,897.43,497.09,912.53,496.9Z" transform="translate(-165.67 -105.8)"/><path class="cls-3" d="M816.59,496.9c15.1.19,15.1-24,0-23.85C801.49,472.86,801.49,497.09,816.59,496.9Z" transform="translate(-165.67 -105.8)"/><path class="cls-3" d="M784.61,496.9c15.1.19,15.1-24,0-23.85C769.51,472.86,769.51,497.09,784.61,496.9Z" transform="translate(-165.67 -105.8)"/><path class="cls-3" d="M752.63,496.9c15.1.19,15.1-24,0-23.85C737.53,472.86,737.53,497.09,752.63,496.9Z" transform="translate(-165.67 -105.8)"/><path class="cls-3" d="M720.65,496.9c15.1.19,15.1-24,0-23.85C705.55,472.86,705.55,497.09,720.65,496.9Z" transform="translate(-165.67 -105.8)"/><path class="cls-3" d="M688.67,496.9c15.1.19,15.1-24,0-23.85C673.57,472.86,673.57,497.09,688.67,496.9Z" transform="translate(-165.67 -105.8)"/><path class="cls-3" d="M656.69,496.9c15.1.19,15.1-24,0-23.85C641.59,472.86,641.59,497.09,656.69,496.9Z" transform="translate(-165.67 -105.8)"/><path class="cls-3" d="M624.71,496.9c15.1.19,15.1-24,0-23.85C609.61,472.86,609.61,497.09,624.71,496.9Z" transform="translate(-165.67 -105.8)"/><path class="cls-3" d="M592.73,496.9c15.1.19,15.1-24,0-23.85C577.63,472.86,577.63,497.09,592.73,496.9Z" transform="translate(-165.67 -105.8)"/><path class="cls-3" d="M560.75,496.9c15.1.19,15.1-24,0-23.85C545.65,472.86,545.65,497.09,560.75,496.9Z" transform="translate(-165.67 -105.8)"/><path class="cls-15" d="M528.77,496.9c15.1.19,15.1-24,0-23.85C513.67,472.86,513.67,497.09,528.77,496.9Z" transform="translate(-165.67 -105.8)"/><path class="cls-3" d="M496.79,496.9c15.1.19,15.1-24,0-23.85C481.69,472.86,481.69,497.09,496.79,496.9Z" transform="translate(-165.67 -105.8)"/><path class="cls-31" d="M464.81,496.9c15.1.19,15.1-24,0-23.85C449.71,472.86,449.71,497.09,464.81,496.9Z" transform="translate(-165.67 -105.8)"/><path class="cls-37" d="M432.83,496.9c15.1.19,15.1-24,0-23.85C417.73,472.86,417.73,497.09,432.83,496.9Z" transform="translate(-165.67 -105.8)"/><path class="cls-7" d="M336.89,496.9c15.1.19,15.1-24,0-23.85C321.79,472.86,321.79,497.09,336.89,496.9Z" transform="translate(-165.67 -105.8)"/><path class="cls-15" d="M304.91,496.9c15.1.19,15.1-24,0-23.85C289.81,472.86,289.81,497.09,304.91,496.9Z" transform="translate(-165.67 -105.8)"/><path class="cls-38" d="M272.93,496.9c15.1.19,15.1-24,0-23.85C257.83,472.86,257.83,497.09,272.93,496.9Z" transform="translate(-165.67 -105.8)"/><path class="cls-6" d="M1552.13,464.31c15.1.19,15.1-24,0-23.85C1537,440.27,1537,464.5,1552.13,464.31Z" transform="translate(-165.67 -105.8)"/><path class="cls-13" d="M1520.15,464.31c15.1.19,15.1-24,0-23.85C1505.05,440.27,1505.05,464.5,1520.15,464.31Z" transform="translate(-165.67 -105.8)"/><path class="cls-3" d="M1488.17,464.31c15.1.19,15.1-24,0-23.85C1473.07,440.27,1473.07,464.5,1488.17,464.31Z" transform="translate(-165.67 -105.8)"/><path class="cls-3" d="M1456.19,464.31c15.1.19,15.1-24,0-23.85C1441.09,440.27,1441.09,464.5,1456.19,464.31Z" transform="translate(-165.67 -105.8)"/><path class="cls-3" d="M1424.21,464.31c15.1.19,15.1-24,0-23.85C1409.11,440.27,1409.11,464.5,1424.21,464.31Z" transform="translate(-165.67 -105.8)"/><path class="cls-3" d="M1392.23,464.31c15.1.19,15.1-24,0-23.85C1377.13,440.27,1377.13,464.5,1392.23,464.31Z" transform="translate(-165.67 -105.8)"/><path class="cls-3" d="M1360.25,464.31c15.1.19,15.1-24,0-23.85C1345.15,440.27,1345.15,464.5,1360.25,464.31Z" transform="translate(-165.67 -105.8)"/><path class="cls-33" d="M944.51,464.31c15.1.19,15.1-24,0-23.85C929.41,440.27,929.41,464.5,944.51,464.31Z" transform="translate(-165.67 -105.8)"/><path class="cls-37" d="M880.55,464.31c15.1.19,15.1-24,0-23.85C865.45,440.27,865.45,464.5,880.55,464.31Z" transform="translate(-165.67 -105.8)"/><path class="cls-3" d="M848.57,464.31c15.1.19,15.1-24,0-23.85C833.47,440.27,833.47,464.5,848.57,464.31Z" transform="translate(-165.67 -105.8)"/><path class="cls-39" d="M816.59,464.31c15.1.19,15.1-24,0-23.85C801.49,440.27,801.49,464.5,816.59,464.31Z" transform="translate(-165.67 -105.8)"/><path class="cls-26" d="M784.61,464.31c15.1.19,15.1-24,0-23.85C769.51,440.27,769.51,464.5,784.61,464.31Z" transform="translate(-165.67 -105.8)"/><path class="cls-34" d="M752.63,464.31c15.1.19,15.1-24,0-23.85C737.53,440.27,737.53,464.5,752.63,464.31Z" transform="translate(-165.67 -105.8)"/><path class="cls-3" d="M720.65,464.31c15.1.19,15.1-24,0-23.85C705.55,440.27,705.55,464.5,720.65,464.31Z" transform="translate(-165.67 -105.8)"/><path class="cls-3" d="M688.67,464.31c15.1.19,15.1-24,0-23.85C673.57,440.27,673.57,464.5,688.67,464.31Z" transform="translate(-165.67 -105.8)"/><path class="cls-32" d="M656.69,464.31c15.1.19,15.1-24,0-23.85C641.59,440.27,641.59,464.5,656.69,464.31Z" transform="translate(-165.67 -105.8)"/><path class="cls-32" d="M624.71,464.31c15.1.19,15.1-24,0-23.85C609.61,440.27,609.61,464.5,624.71,464.31Z" transform="translate(-165.67 -105.8)"/><path class="cls-15" d="M592.73,464.31c15.1.19,15.1-24,0-23.85C577.63,440.27,577.63,464.5,592.73,464.31Z" transform="translate(-165.67 -105.8)"/><path class="cls-13" d="M560.75,464.31c15.1.19,15.1-24,0-23.85C545.65,440.27,545.65,464.5,560.75,464.31Z" transform="translate(-165.67 -105.8)"/><path class="cls-5" d="M528.77,464.31c15.1.19,15.1-24,0-23.85C513.67,440.27,513.67,464.5,528.77,464.31Z" transform="translate(-165.67 -105.8)"/><path class="cls-26" d="M496.79,464.31c15.1.19,15.1-24,0-23.85C481.69,440.27,481.69,464.5,496.79,464.31Z" transform="translate(-165.67 -105.8)"/><path class="cls-5" d="M1648.07,431.72c15.1.19,15.1-24,0-23.85C1633,407.68,1633,431.91,1648.07,431.72Z" transform="translate(-165.67 -105.8)"/><path class="cls-40" d="M1616.09,431.72c15.1.19,15.1-24,0-23.85C1601,407.68,1601,431.91,1616.09,431.72Z" transform="translate(-165.67 -105.8)"/><path class="cls-16" d="M1584.11,431.72c15.1.19,15.1-24,0-23.85C1569,407.68,1569,431.91,1584.11,431.72Z" transform="translate(-165.67 -105.8)"/><path class="cls-3" d="M1552.13,431.72c15.1.19,15.1-24,0-23.85C1537,407.68,1537,431.91,1552.13,431.72Z" transform="translate(-165.67 -105.8)"/><path class="cls-3" d="M1520.15,431.72c15.1.19,15.1-24,0-23.85C1505.05,407.68,1505.05,431.91,1520.15,431.72Z" transform="translate(-165.67 -105.8)"/><path class="cls-3" d="M1488.17,431.72c15.1.19,15.1-24,0-23.85C1473.07,407.68,1473.07,431.91,1488.17,431.72Z" transform="translate(-165.67 -105.8)"/><path class="cls-7" d="M1456.19,431.72c15.1.19,15.1-24,0-23.85C1441.09,407.68,1441.09,431.91,1456.19,431.72Z" transform="translate(-165.67 -105.8)"/><path class="cls-7" d="M1424.21,431.72c15.1.19,15.1-24,0-23.85C1409.11,407.68,1409.11,431.91,1424.21,431.72Z" transform="translate(-165.67 -105.8)"/><path class="cls-7" d="M1392.23,431.72c15.1.19,15.1-24,0-23.85C1377.13,407.68,1377.13,431.91,1392.23,431.72Z" transform="translate(-165.67 -105.8)"/><path class="cls-7" d="M1360.25,431.72c15.1.19,15.1-24,0-23.85C1345.15,407.68,1345.15,431.91,1360.25,431.72Z" transform="translate(-165.67 -105.8)"/><path class="cls-3" d="M912.53,431.72c15.1.19,15.1-24,0-23.85C897.43,407.68,897.43,431.91,912.53,431.72Z" transform="translate(-165.67 -105.8)"/><path class="cls-11" d="M880.55,431.72c15.1.19,15.1-24,0-23.85C865.45,407.68,865.45,431.91,880.55,431.72Z" transform="translate(-165.67 -105.8)"/><path class="cls-3" d="M848.57,431.72c15.1.19,15.1-24,0-23.85C833.47,407.68,833.47,431.91,848.57,431.72Z" transform="translate(-165.67 -105.8)"/><path class="cls-5" d="M816.59,431.72c15.1.19,15.1-24,0-23.85C801.49,407.68,801.49,431.91,816.59,431.72Z" transform="translate(-165.67 -105.8)"/><path class="cls-7" d="M784.61,431.72c15.1.19,15.1-24,0-23.85C769.51,407.68,769.51,431.91,784.61,431.72Z" transform="translate(-165.67 -105.8)"/><path class="cls-3" d="M752.63,431.72c15.1.19,15.1-24,0-23.85C737.53,407.68,737.53,431.91,752.63,431.72Z" transform="translate(-165.67 -105.8)"/><path class="cls-3" d="M720.65,431.72c15.1.19,15.1-24,0-23.85C705.55,407.68,705.55,431.91,720.65,431.72Z" transform="translate(-165.67 -105.8)"/><path class="cls-41" d="M688.67,431.72c15.1.19,15.1-24,0-23.85C673.57,407.68,673.57,431.91,688.67,431.72Z" transform="translate(-165.67 -105.8)"/><path class="cls-3" d="M656.69,431.72c15.1.19,15.1-24,0-23.85C641.59,407.68,641.59,431.91,656.69,431.72Z" transform="translate(-165.67 -105.8)"/><path class="cls-3" d="M624.71,431.72c15.1.19,15.1-24,0-23.85C609.61,407.68,609.61,431.91,624.71,431.72Z" transform="translate(-165.67 -105.8)"/><path class="cls-3" d="M592.73,431.72c15.1.19,15.1-24,0-23.85C577.63,407.68,577.63,431.91,592.73,431.72Z" transform="translate(-165.67 -105.8)"/><path class="cls-3" d="M560.75,431.72c15.1.19,15.1-24,0-23.85C545.65,407.68,545.65,431.91,560.75,431.72Z" transform="translate(-165.67 -105.8)"/><path class="cls-3" d="M528.77,431.72c15.1.19,15.1-24,0-23.85C513.67,407.68,513.67,431.91,528.77,431.72Z" transform="translate(-165.67 -105.8)"/><path class="cls-3" d="M496.79,431.72c15.1.19,15.1-24,0-23.85C481.69,407.68,481.69,431.91,496.79,431.72Z" transform="translate(-165.67 -105.8)"/><path class="cls-3" d="M464.81,431.72c15.1.19,15.1-24,0-23.85C449.71,407.68,449.71,431.91,464.81,431.72Z" transform="translate(-165.67 -105.8)"/><path class="cls-3" d="M432.83,431.72c15.1.19,15.1-24,0-23.85C417.73,407.68,417.73,431.91,432.83,431.72Z" transform="translate(-165.67 -105.8)"/><path class="cls-30" d="M400.85,431.72c15.1.19,15.1-24,0-23.85C385.75,407.68,385.75,431.91,400.85,431.72Z" transform="translate(-165.67 -105.8)"/><path class="cls-31" d="M368.87,431.72c15.1.19,15.1-24,0-23.85C353.77,407.68,353.77,431.91,368.87,431.72Z" transform="translate(-165.67 -105.8)"/><path class="cls-32" d="M336.89,431.72c15.1.19,15.1-24,0-23.85C321.79,407.68,321.79,431.91,336.89,431.72Z" transform="translate(-165.67 -105.8)"/><path class="cls-9" d="M304.91,431.72c15.1.19,15.1-24,0-23.85C289.81,407.68,289.81,431.91,304.91,431.72Z" transform="translate(-165.67 -105.8)"/><path class="cls-1" d="M272.93,431.72c15.1.19,15.1-24,0-23.85C257.83,407.68,257.83,431.91,272.93,431.72Z" transform="translate(-165.67 -105.8)"/><path class="cls-1" d="M1648.07,399.12h0" transform="translate(-165.67 -105.8)"/><path class="cls-3" d="M1616.09,399.12c15.1.2,15.1-24,0-23.84C1601,375.09,1601,399.32,1616.09,399.12Z" transform="translate(-165.67 -105.8)"/><path class="cls-3" d="M1584.11,399.12c15.1.2,15.1-24,0-23.84C1569,375.09,1569,399.32,1584.11,399.12Z" transform="translate(-165.67 -105.8)"/><path class="cls-3" d="M1552.13,399.12c15.1.2,15.1-24,0-23.84C1537,375.09,1537,399.32,1552.13,399.12Z" transform="translate(-165.67 -105.8)"/><path class="cls-11" d="M1520.15,399.12c15.1.2,15.1-24,0-23.84C1505.05,375.09,1505.05,399.32,1520.15,399.12Z" transform="translate(-165.67 -105.8)"/><path class="cls-3" d="M1488.17,399.12c15.1.2,15.1-24,0-23.84C1473.07,375.09,1473.07,399.32,1488.17,399.12Z" transform="translate(-165.67 -105.8)"/><path class="cls-3" d="M1456.19,399.12c15.1.2,15.1-24,0-23.84C1441.09,375.09,1441.09,399.32,1456.19,399.12Z" transform="translate(-165.67 -105.8)"/><path class="cls-3" d="M1424.21,399.12c15.1.2,15.1-24,0-23.84C1409.11,375.09,1409.11,399.32,1424.21,399.12Z" transform="translate(-165.67 -105.8)"/><path class="cls-3" d="M1392.23,399.12c15.1.2,15.1-24,0-23.84C1377.13,375.09,1377.13,399.32,1392.23,399.12Z" transform="translate(-165.67 -105.8)"/><path class="cls-3" d="M1360.25,399.12c15.1.2,15.1-24,0-23.84C1345.15,375.09,1345.15,399.32,1360.25,399.12Z" transform="translate(-165.67 -105.8)"/><path class="cls-3" d="M1328.27,399.12c15.1.2,15.1-24,0-23.84C1313.17,375.09,1313.17,399.32,1328.27,399.12Z" transform="translate(-165.67 -105.8)"/><path class="cls-12" d="M1008.47,399.12c15.1.2,15.1-24,0-23.84C993.37,375.09,993.37,399.32,1008.47,399.12Z" transform="translate(-165.67 -105.8)"/><path class="cls-42" d="M912.53,399.12c15.1.2,15.1-24,0-23.84C897.43,375.09,897.43,399.32,912.53,399.12Z" transform="translate(-165.67 -105.8)"/><path class="cls-3" d="M880.55,399.12c15.1.2,15.1-24,0-23.84C865.45,375.09,865.45,399.32,880.55,399.12Z" transform="translate(-165.67 -105.8)"/><path class="cls-15" d="M848.57,399.12c15.1.2,15.1-24,0-23.84C833.47,375.09,833.47,399.32,848.57,399.12Z" transform="translate(-165.67 -105.8)"/><path class="cls-3" d="M816.59,399.12c15.1.2,15.1-24,0-23.84C801.49,375.09,801.49,399.32,816.59,399.12Z" transform="translate(-165.67 -105.8)"/><path class="cls-3" d="M784.61,399.12c15.1.2,15.1-24,0-23.84C769.51,375.09,769.51,399.32,784.61,399.12Z" transform="translate(-165.67 -105.8)"/><path class="cls-3" d="M752.63,399.12c15.1.2,15.1-24,0-23.84C737.53,375.09,737.53,399.32,752.63,399.12Z" transform="translate(-165.67 -105.8)"/><path class="cls-3" d="M720.65,399.12c15.1.2,15.1-24,0-23.84C705.55,375.09,705.55,399.32,720.65,399.12Z" transform="translate(-165.67 -105.8)"/><path class="cls-3" d="M688.67,399.12c15.1.2,15.1-24,0-23.84C673.57,375.09,673.57,399.32,688.67,399.12Z" transform="translate(-165.67 -105.8)"/><path class="cls-3" d="M656.69,399.12c15.1.2,15.1-24,0-23.84C641.59,375.09,641.59,399.32,656.69,399.12Z" transform="translate(-165.67 -105.8)"/><path class="cls-32" d="M624.71,399.12c15.1.2,15.1-24,0-23.84C609.61,375.09,609.61,399.32,624.71,399.12Z" transform="translate(-165.67 -105.8)"/><path class="cls-3" d="M592.73,399.12c15.1.2,15.1-24,0-23.84C577.63,375.09,577.63,399.32,592.73,399.12Z" transform="translate(-165.67 -105.8)"/><path class="cls-3" d="M560.75,399.12c15.1.2,15.1-24,0-23.84C545.65,375.09,545.65,399.32,560.75,399.12Z" transform="translate(-165.67 -105.8)"/><path class="cls-3" d="M528.77,399.12c15.1.2,15.1-24,0-23.84C513.67,375.09,513.67,399.32,528.77,399.12Z" transform="translate(-165.67 -105.8)"/><path class="cls-3" d="M496.79,399.12c15.1.2,15.1-24,0-23.84C481.69,375.09,481.69,399.32,496.79,399.12Z" transform="translate(-165.67 -105.8)"/><path class="cls-3" d="M464.81,399.12c15.1.2,15.1-24,0-23.84C449.71,375.09,449.71,399.32,464.81,399.12Z" transform="translate(-165.67 -105.8)"/><path class="cls-3" d="M432.83,399.12c15.1.2,15.1-24,0-23.84C417.73,375.09,417.73,399.32,432.83,399.12Z" transform="translate(-165.67 -105.8)"/><path class="cls-11" d="M400.85,399.12c15.1.2,15.1-24,0-23.84C385.75,375.09,385.75,399.32,400.85,399.12Z" transform="translate(-165.67 -105.8)"/><path class="cls-43" d="M368.87,399.12c15.1.2,15.1-24,0-23.84C353.77,375.09,353.77,399.32,368.87,399.12Z" transform="translate(-165.67 -105.8)"/><path class="cls-44" d="M336.89,399.12c15.1.2,15.1-24,0-23.84C321.79,375.09,321.79,399.32,336.89,399.12Z" transform="translate(-165.67 -105.8)"/><path class="cls-23" d="M304.91,399.12c15.1.2,15.1-24,0-23.84C289.81,375.09,289.81,399.32,304.91,399.12Z" transform="translate(-165.67 -105.8)"/><path class="cls-2" d="M272.93,399.12c15.1.2,15.1-24,0-23.84C257.83,375.09,257.83,399.32,272.93,399.12Z" transform="translate(-165.67 -105.8)"/><path class="cls-44" d="M1584.11,366.53c15.1.2,15.1-24,0-23.84C1569,342.49,1569,366.73,1584.11,366.53Z" transform="translate(-165.67 -105.8)"/><path class="cls-3" d="M1552.13,366.53c15.1.2,15.1-24,0-23.84C1537,342.49,1537,366.73,1552.13,366.53Z" transform="translate(-165.67 -105.8)"/><path class="cls-3" d="M1456.19,366.53c15.1.2,15.1-24,0-23.84C1441.09,342.49,1441.09,366.73,1456.19,366.53Z" transform="translate(-165.67 -105.8)"/><path class="cls-3" d="M1424.21,366.53c15.1.2,15.1-24,0-23.84C1409.11,342.49,1409.11,366.73,1424.21,366.53Z" transform="translate(-165.67 -105.8)"/><path class="cls-3" d="M1392.23,366.53c15.1.2,15.1-24,0-23.84C1377.13,342.49,1377.13,366.73,1392.23,366.53Z" transform="translate(-165.67 -105.8)"/><path class="cls-3" d="M1360.25,366.53c15.1.2,15.1-24,0-23.84C1345.15,342.49,1345.15,366.73,1360.25,366.53Z" transform="translate(-165.67 -105.8)"/><path class="cls-3" d="M1328.27,366.53c15.1.2,15.1-24,0-23.84C1313.17,342.49,1313.17,366.73,1328.27,366.53Z" transform="translate(-165.67 -105.8)"/><path class="cls-2" d="M1296.29,366.53c15.1.2,15.1-24,0-23.84C1281.19,342.49,1281.19,366.73,1296.29,366.53Z" transform="translate(-165.67 -105.8)"/><path class="cls-3" d="M1200.35,366.53c15.1.2,15.1-24,0-23.84C1185.25,342.49,1185.25,366.73,1200.35,366.53Z" transform="translate(-165.67 -105.8)"/><path class="cls-9" d="M1008.47,366.53c15.1.2,15.1-24,0-23.84C993.37,342.49,993.37,366.73,1008.47,366.53Z" transform="translate(-165.67 -105.8)"/><path class="cls-12" d="M976.49,366.53c15.1.2,15.1-24,0-23.84C961.39,342.49,961.39,366.73,976.49,366.53Z" transform="translate(-165.67 -105.8)"/><path class="cls-45" d="M944.51,366.53c15.1.2,15.1-24,0-23.84C929.41,342.49,929.41,366.73,944.51,366.53Z" transform="translate(-165.67 -105.8)"/><path class="cls-3" d="M912.53,366.53c15.1.2,15.1-24,0-23.84C897.43,342.49,897.43,366.73,912.53,366.53Z" transform="translate(-165.67 -105.8)"/><path class="cls-3" d="M880.55,366.53c15.1.2,15.1-24,0-23.84C865.45,342.49,865.45,366.73,880.55,366.53Z" transform="translate(-165.67 -105.8)"/><path class="cls-3" d="M848.57,366.53c15.1.2,15.1-24,0-23.84C833.47,342.49,833.47,366.73,848.57,366.53Z" transform="translate(-165.67 -105.8)"/><path class="cls-3" d="M816.59,366.53c15.1.2,15.1-24,0-23.84C801.49,342.49,801.49,366.73,816.59,366.53Z" transform="translate(-165.67 -105.8)"/><path class="cls-3" d="M784.61,366.53c15.1.2,15.1-24,0-23.84C769.51,342.49,769.51,366.73,784.61,366.53Z" transform="translate(-165.67 -105.8)"/><path class="cls-3" d="M752.63,366.53c15.1.2,15.1-24,0-23.84C737.53,342.49,737.53,366.73,752.63,366.53Z" transform="translate(-165.67 -105.8)"/><path class="cls-3" d="M720.65,366.53c15.1.2,15.1-24,0-23.84C705.55,342.49,705.55,366.73,720.65,366.53Z" transform="translate(-165.67 -105.8)"/><path class="cls-3" d="M688.67,366.53c15.1.2,15.1-24,0-23.84C673.57,342.49,673.57,366.73,688.67,366.53Z" transform="translate(-165.67 -105.8)"/><path class="cls-3" d="M656.69,366.53c15.1.2,15.1-24,0-23.84C641.59,342.49,641.59,366.73,656.69,366.53Z" transform="translate(-165.67 -105.8)"/><path class="cls-3" d="M624.71,366.53c15.1.2,15.1-24,0-23.84C609.61,342.49,609.61,366.73,624.71,366.53Z" transform="translate(-165.67 -105.8)"/><path class="cls-3" d="M592.73,366.53c15.1.2,15.1-24,0-23.84C577.63,342.49,577.63,366.73,592.73,366.53Z" transform="translate(-165.67 -105.8)"/><path class="cls-3" d="M560.75,366.53c15.1.2,15.1-24,0-23.84C545.65,342.49,545.65,366.73,560.75,366.53Z" transform="translate(-165.67 -105.8)"/><path class="cls-3" d="M528.77,366.53c15.1.2,15.1-24,0-23.84C513.67,342.49,513.67,366.73,528.77,366.53Z" transform="translate(-165.67 -105.8)"/><path class="cls-3" d="M496.79,366.53c15.1.2,15.1-24,0-23.84C481.69,342.49,481.69,366.73,496.79,366.53Z" transform="translate(-165.67 -105.8)"/><path class="cls-3" d="M464.81,366.53c15.1.2,15.1-24,0-23.84C449.71,342.49,449.71,366.73,464.81,366.53Z" transform="translate(-165.67 -105.8)"/><path class="cls-3" d="M432.83,366.53c15.1.2,15.1-24,0-23.84C417.73,342.49,417.73,366.73,432.83,366.53Z" transform="translate(-165.67 -105.8)"/><path class="cls-2" d="M400.85,366.53c15.1.2,15.1-24,0-23.84C385.75,342.49,385.75,366.73,400.85,366.53Z" transform="translate(-165.67 -105.8)"/><path class="cls-3" d="M368.87,366.53c15.1.2,15.1-24,0-23.84C353.77,342.49,353.77,366.73,368.87,366.53Z" transform="translate(-165.67 -105.8)"/><path class="cls-3" d="M336.89,366.53c15.1.2,15.1-24,0-23.84C321.79,342.49,321.79,366.73,336.89,366.53Z" transform="translate(-165.67 -105.8)"/><path class="cls-46" d="M272.93,366.53c15.1.2,15.1-24,0-23.84C257.83,342.49,257.83,366.73,272.93,366.53Z" transform="translate(-165.67 -105.8)"/><path class="cls-3" d="M1680.05,333.94c15.1.19,15.1-24,0-23.84C1665,309.9,1665,334.13,1680.05,333.94Z" transform="translate(-165.67 -105.8)"/><path class="cls-4" d="M1584.11,333.94c15.1.19,15.1-24,0-23.84C1569,309.9,1569,334.13,1584.11,333.94Z" transform="translate(-165.67 -105.8)"/><path class="cls-14" d="M1552.13,333.94c15.1.19,15.1-24,0-23.84C1537,309.9,1537,334.13,1552.13,333.94Z" transform="translate(-165.67 -105.8)"/><path class="cls-13" d="M1520.15,333.94c15.1.19,15.1-24,0-23.84C1505.05,309.9,1505.05,334.13,1520.15,333.94Z" transform="translate(-165.67 -105.8)"/><path class="cls-3" d="M1456.19,333.94c15.1.19,15.1-24,0-23.84C1441.09,309.9,1441.09,334.13,1456.19,333.94Z" transform="translate(-165.67 -105.8)"/><path class="cls-3" d="M1424.21,333.94c15.1.19,15.1-24,0-23.84C1409.11,309.9,1409.11,334.13,1424.21,333.94Z" transform="translate(-165.67 -105.8)"/><path class="cls-3" d="M1392.23,333.94c15.1.19,15.1-24,0-23.84C1377.13,309.9,1377.13,334.13,1392.23,333.94Z" transform="translate(-165.67 -105.8)"/><path class="cls-3" d="M1360.25,333.94c15.1.19,15.1-24,0-23.84C1345.15,309.9,1345.15,334.13,1360.25,333.94Z" transform="translate(-165.67 -105.8)"/><path class="cls-3" d="M1328.27,333.94c15.1.19,15.1-24,0-23.84C1313.17,309.9,1313.17,334.13,1328.27,333.94Z" transform="translate(-165.67 -105.8)"/><path class="cls-3" d="M1296.29,333.94c15.1.19,15.1-24,0-23.84C1281.19,309.9,1281.19,334.13,1296.29,333.94Z" transform="translate(-165.67 -105.8)"/><path class="cls-26" d="M1264.31,333.94c15.1.19,15.1-24,0-23.84C1249.21,309.9,1249.21,334.13,1264.31,333.94Z" transform="translate(-165.67 -105.8)"/><path class="cls-3" d="M1232.33,333.94c15.1.19,15.1-24,0-23.84C1217.23,309.9,1217.23,334.13,1232.33,333.94Z" transform="translate(-165.67 -105.8)"/><path class="cls-3" d="M1200.35,333.94c15.1.19,15.1-24,0-23.84C1185.25,309.9,1185.25,334.13,1200.35,333.94Z" transform="translate(-165.67 -105.8)"/><path class="cls-3" d="M1168.37,333.94c15.1.19,15.1-24,0-23.84C1153.27,309.9,1153.27,334.13,1168.37,333.94Z" transform="translate(-165.67 -105.8)"/><path class="cls-12" d="M1072.43,333.94c15.1.19,15.1-24,0-23.84C1057.33,309.9,1057.33,334.13,1072.43,333.94Z" transform="translate(-165.67 -105.8)"/><path class="cls-3" d="M1040.45,333.94c15.1.19,15.1-24,0-23.84C1025.35,309.9,1025.35,334.13,1040.45,333.94Z" transform="translate(-165.67 -105.8)"/><path class="cls-3" d="M1008.47,333.94c15.1.19,15.1-24,0-23.84C993.37,309.9,993.37,334.13,1008.47,333.94Z" transform="translate(-165.67 -105.8)"/><path class="cls-3" d="M976.49,333.94c15.1.19,15.1-24,0-23.84C961.39,309.9,961.39,334.13,976.49,333.94Z" transform="translate(-165.67 -105.8)"/><path class="cls-3" d="M944.51,333.94c15.1.19,15.1-24,0-23.84C929.41,309.9,929.41,334.13,944.51,333.94Z" transform="translate(-165.67 -105.8)"/><path class="cls-3" d="M912.53,333.94c15.1.19,15.1-24,0-23.84C897.43,309.9,897.43,334.13,912.53,333.94Z" transform="translate(-165.67 -105.8)"/><path class="cls-3" d="M880.55,333.94c15.1.19,15.1-24,0-23.84C865.45,309.9,865.45,334.13,880.55,333.94Z" transform="translate(-165.67 -105.8)"/><path class="cls-3" d="M848.57,333.94c15.1.19,15.1-24,0-23.84C833.47,309.9,833.47,334.13,848.57,333.94Z" transform="translate(-165.67 -105.8)"/><path class="cls-3" d="M816.59,333.94c15.1.19,15.1-24,0-23.84C801.49,309.9,801.49,334.13,816.59,333.94Z" transform="translate(-165.67 -105.8)"/><path class="cls-3" d="M784.61,333.94c15.1.19,15.1-24,0-23.84C769.51,309.9,769.51,334.13,784.61,333.94Z" transform="translate(-165.67 -105.8)"/><path class="cls-3" d="M752.63,333.94c15.1.19,15.1-24,0-23.84C737.53,309.9,737.53,334.13,752.63,333.94Z" transform="translate(-165.67 -105.8)"/><path class="cls-3" d="M720.65,333.94c15.1.19,15.1-24,0-23.84C705.55,309.9,705.55,334.13,720.65,333.94Z" transform="translate(-165.67 -105.8)"/><path class="cls-3" d="M688.67,333.94c15.1.19,15.1-24,0-23.84C673.57,309.9,673.57,334.13,688.67,333.94Z" transform="translate(-165.67 -105.8)"/><path class="cls-3" d="M656.69,333.94c15.1.19,15.1-24,0-23.84C641.59,309.9,641.59,334.13,656.69,333.94Z" transform="translate(-165.67 -105.8)"/><path class="cls-3" d="M624.71,333.94c15.1.19,15.1-24,0-23.84C609.61,309.9,609.61,334.13,624.71,333.94Z" transform="translate(-165.67 -105.8)"/><path class="cls-3" d="M592.73,333.94c15.1.19,15.1-24,0-23.84C577.63,309.9,577.63,334.13,592.73,333.94Z" transform="translate(-165.67 -105.8)"/><path class="cls-3" d="M560.75,333.94c15.1.19,15.1-24,0-23.84C545.65,309.9,545.65,334.13,560.75,333.94Z" transform="translate(-165.67 -105.8)"/><path class="cls-3" d="M528.77,333.94c15.1.19,15.1-24,0-23.84C513.67,309.9,513.67,334.13,528.77,333.94Z" transform="translate(-165.67 -105.8)"/><path class="cls-3" d="M496.79,333.94c15.1.19,15.1-24,0-23.84C481.69,309.9,481.69,334.13,496.79,333.94Z" transform="translate(-165.67 -105.8)"/><path class="cls-3" d="M464.81,333.94c15.1.19,15.1-24,0-23.84C449.71,309.9,449.71,334.13,464.81,333.94Z" transform="translate(-165.67 -105.8)"/><path class="cls-6" d="M432.83,333.94c15.1.19,15.1-24,0-23.84C417.73,309.9,417.73,334.13,432.83,333.94Z" transform="translate(-165.67 -105.8)"/><path class="cls-3" d="M400.85,333.94c15.1.19,15.1-24,0-23.84C385.75,309.9,385.75,334.13,400.85,333.94Z" transform="translate(-165.67 -105.8)"/><path class="cls-3" d="M368.87,333.94c15.1.19,15.1-24,0-23.84C353.77,309.9,353.77,334.13,368.87,333.94Z" transform="translate(-165.67 -105.8)"/><path class="cls-26" d="M336.89,333.94c15.1.19,15.1-24,0-23.84C321.79,309.9,321.79,334.13,336.89,333.94Z" transform="translate(-165.67 -105.8)"/><path class="cls-3" d="M1680.05,301.35h0" transform="translate(-165.67 -105.8)"/><path class="cls-23" d="M1616.09,301.35c15.1.19,15.1-24,0-23.85C1601,277.31,1601,301.54,1616.09,301.35Z" transform="translate(-165.67 -105.8)"/><path class="cls-11" d="M1584.11,301.35c15.1.19,15.1-24,0-23.85C1569,277.31,1569,301.54,1584.11,301.35Z" transform="translate(-165.67 -105.8)"/><path class="cls-1" d="M1552.13,301.35c15.1.19,15.1-24,0-23.85C1537,277.31,1537,301.54,1552.13,301.35Z" transform="translate(-165.67 -105.8)"/><path class="cls-5" d="M1520.15,301.35c15.1.19,15.1-24,0-23.85C1505.05,277.31,1505.05,301.54,1520.15,301.35Z" transform="translate(-165.67 -105.8)"/><path class="cls-3" d="M1488.17,301.35c15.1.19,15.1-24,0-23.85C1473.07,277.31,1473.07,301.54,1488.17,301.35Z" transform="translate(-165.67 -105.8)"/><path class="cls-3" d="M1456.19,301.35c15.1.19,15.1-24,0-23.85C1441.09,277.31,1441.09,301.54,1456.19,301.35Z" transform="translate(-165.67 -105.8)"/><path class="cls-3" d="M1424.21,301.35c15.1.19,15.1-24,0-23.85C1409.11,277.31,1409.11,301.54,1424.21,301.35Z" transform="translate(-165.67 -105.8)"/><path class="cls-3" d="M1392.23,301.35c15.1.19,15.1-24,0-23.85C1377.13,277.31,1377.13,301.54,1392.23,301.35Z" transform="translate(-165.67 -105.8)"/><path class="cls-3" d="M1360.25,301.35c15.1.19,15.1-24,0-23.85C1345.15,277.31,1345.15,301.54,1360.25,301.35Z" transform="translate(-165.67 -105.8)"/><path class="cls-3" d="M1328.27,301.35c15.1.19,15.1-24,0-23.85C1313.17,277.31,1313.17,301.54,1328.27,301.35Z" transform="translate(-165.67 -105.8)"/><path class="cls-3" d="M1296.29,301.35c15.1.19,15.1-24,0-23.85C1281.19,277.31,1281.19,301.54,1296.29,301.35Z" transform="translate(-165.67 -105.8)"/><path class="cls-26" d="M1264.31,301.35c15.1.19,15.1-24,0-23.85C1249.21,277.31,1249.21,301.54,1264.31,301.35Z" transform="translate(-165.67 -105.8)"/><path class="cls-3" d="M1232.33,301.35c15.1.19,15.1-24,0-23.85C1217.23,277.31,1217.23,301.54,1232.33,301.35Z" transform="translate(-165.67 -105.8)"/><path class="cls-3" d="M1200.35,301.35c15.1.19,15.1-24,0-23.85C1185.25,277.31,1185.25,301.54,1200.35,301.35Z" transform="translate(-165.67 -105.8)"/><path class="cls-3" d="M1168.37,301.35c15.1.19,15.1-24,0-23.85C1153.27,277.31,1153.27,301.54,1168.37,301.35Z" transform="translate(-165.67 -105.8)"/><path class="cls-4" d="M1136.39,301.35c15.1.19,15.1-24,0-23.85C1121.29,277.31,1121.29,301.54,1136.39,301.35Z" transform="translate(-165.67 -105.8)"/><path class="cls-4" d="M1104.41,301.35c15.1.19,15.1-24,0-23.85C1089.31,277.31,1089.31,301.54,1104.41,301.35Z" transform="translate(-165.67 -105.8)"/><path class="cls-3" d="M1072.43,301.35c15.1.19,15.1-24,0-23.85C1057.33,277.31,1057.33,301.54,1072.43,301.35Z" transform="translate(-165.67 -105.8)"/><path class="cls-3" d="M1040.45,301.35c15.1.19,15.1-24,0-23.85C1025.35,277.31,1025.35,301.54,1040.45,301.35Z" transform="translate(-165.67 -105.8)"/><path class="cls-3" d="M1008.47,301.35c15.1.19,15.1-24,0-23.85C993.37,277.31,993.37,301.54,1008.47,301.35Z" transform="translate(-165.67 -105.8)"/><path class="cls-3" d="M976.49,301.35c15.1.19,15.1-24,0-23.85C961.39,277.31,961.39,301.54,976.49,301.35Z" transform="translate(-165.67 -105.8)"/><path class="cls-3" d="M944.51,301.35c15.1.19,15.1-24,0-23.85C929.41,277.31,929.41,301.54,944.51,301.35Z" transform="translate(-165.67 -105.8)"/><path class="cls-3" d="M912.53,301.35c15.1.19,15.1-24,0-23.85C897.43,277.31,897.43,301.54,912.53,301.35Z" transform="translate(-165.67 -105.8)"/><path class="cls-3" d="M880.55,301.35c15.1.19,15.1-24,0-23.85C865.45,277.31,865.45,301.54,880.55,301.35Z" transform="translate(-165.67 -105.8)"/><path class="cls-3" d="M848.57,301.35c15.1.19,15.1-24,0-23.85C833.47,277.31,833.47,301.54,848.57,301.35Z" transform="translate(-165.67 -105.8)"/><path class="cls-3" d="M816.59,301.35c15.1.19,15.1-24,0-23.85C801.49,277.31,801.49,301.54,816.59,301.35Z" transform="translate(-165.67 -105.8)"/><path class="cls-3" d="M784.61,301.35c15.1.19,15.1-24,0-23.85C769.51,277.31,769.51,301.54,784.61,301.35Z" transform="translate(-165.67 -105.8)"/><path class="cls-3" d="M752.63,301.35c15.1.19,15.1-24,0-23.85C737.53,277.31,737.53,301.54,752.63,301.35Z" transform="translate(-165.67 -105.8)"/><path class="cls-3" d="M720.65,301.35c15.1.19,15.1-24,0-23.85C705.55,277.31,705.55,301.54,720.65,301.35Z" transform="translate(-165.67 -105.8)"/><path class="cls-3" d="M688.67,301.35c15.1.19,15.1-24,0-23.85C673.57,277.31,673.57,301.54,688.67,301.35Z" transform="translate(-165.67 -105.8)"/><path class="cls-3" d="M656.69,301.35c15.1.19,15.1-24,0-23.85C641.59,277.31,641.59,301.54,656.69,301.35Z" transform="translate(-165.67 -105.8)"/><path class="cls-29" d="M624.71,301.35c15.1.19,15.1-24,0-23.85C609.61,277.31,609.61,301.54,624.71,301.35Z" transform="translate(-165.67 -105.8)"/><path class="cls-3" d="M592.73,301.35c15.1.19,15.1-24,0-23.85C577.63,277.31,577.63,301.54,592.73,301.35Z" transform="translate(-165.67 -105.8)"/><path class="cls-3" d="M560.75,301.35c15.1.19,15.1-24,0-23.85C545.65,277.31,545.65,301.54,560.75,301.35Z" transform="translate(-165.67 -105.8)"/><path class="cls-3" d="M528.77,301.35c15.1.19,15.1-24,0-23.85C513.67,277.31,513.67,301.54,528.77,301.35Z" transform="translate(-165.67 -105.8)"/><path class="cls-4" d="M496.79,301.35c15.1.19,15.1-24,0-23.85C481.69,277.31,481.69,301.54,496.79,301.35Z" transform="translate(-165.67 -105.8)"/><path class="cls-11" d="M464.81,301.35c15.1.19,15.1-24,0-23.85C449.71,277.31,449.71,301.54,464.81,301.35Z" transform="translate(-165.67 -105.8)"/><path class="cls-26" d="M432.83,301.35c15.1.19,15.1-24,0-23.85C417.73,277.31,417.73,301.54,432.83,301.35Z" transform="translate(-165.67 -105.8)"/><path class="cls-3" d="M400.85,301.35c15.1.19,15.1-24,0-23.85C385.75,277.31,385.75,301.54,400.85,301.35Z" transform="translate(-165.67 -105.8)"/><path class="cls-31" d="M368.87,301.35c15.1.19,15.1-24,0-23.85C353.77,277.31,353.77,301.54,368.87,301.35Z" transform="translate(-165.67 -105.8)"/><path class="cls-20" d="M209,301.35c15.1.19,15.1-24,0-23.85C193.87,277.31,193.87,301.54,209,301.35Z" transform="translate(-165.67 -105.8)"/><path class="cls-13" d="M1648.07,268.76c15.1.19,15.1-24,0-23.85C1633,244.72,1633,269,1648.07,268.76Z" transform="translate(-165.67 -105.8)"/><path class="cls-4" d="M1584.11,268.76c15.1.19,15.1-24,0-23.85C1569,244.72,1569,269,1584.11,268.76Z" transform="translate(-165.67 -105.8)"/><path class="cls-15" d="M1552.13,268.76c15.1.19,15.1-24,0-23.85C1537,244.72,1537,269,1552.13,268.76Z" transform="translate(-165.67 -105.8)"/><path class="cls-24" d="M1520.15,268.76c15.1.19,15.1-24,0-23.85C1505.05,244.72,1505.05,269,1520.15,268.76Z" transform="translate(-165.67 -105.8)"/><path class="cls-27" d="M1488.17,268.76c15.1.19,15.1-24,0-23.85C1473.07,244.72,1473.07,269,1488.17,268.76Z" transform="translate(-165.67 -105.8)"/><path class="cls-5" d="M1456.19,268.76c15.1.19,15.1-24,0-23.85C1441.09,244.72,1441.09,269,1456.19,268.76Z" transform="translate(-165.67 -105.8)"/><path class="cls-3" d="M1424.21,268.76c15.1.19,15.1-24,0-23.85C1409.11,244.72,1409.11,269,1424.21,268.76Z" transform="translate(-165.67 -105.8)"/><path class="cls-3" d="M1392.23,268.76c15.1.19,15.1-24,0-23.85C1377.13,244.72,1377.13,269,1392.23,268.76Z" transform="translate(-165.67 -105.8)"/><path class="cls-47" d="M1360.25,268.76c15.1.19,15.1-24,0-23.85C1345.15,244.72,1345.15,269,1360.25,268.76Z" transform="translate(-165.67 -105.8)"/><path class="cls-9" d="M1328.27,268.76c15.1.19,15.1-24,0-23.85C1313.17,244.72,1313.17,269,1328.27,268.76Z" transform="translate(-165.67 -105.8)"/><path class="cls-35" d="M1296.29,268.76c15.1.19,15.1-24,0-23.85C1281.19,244.72,1281.19,269,1296.29,268.76Z" transform="translate(-165.67 -105.8)"/><path class="cls-4" d="M1264.31,268.76c15.1.19,15.1-24,0-23.85C1249.21,244.72,1249.21,269,1264.31,268.76Z" transform="translate(-165.67 -105.8)"/><path class="cls-3" d="M1232.33,268.76c15.1.19,15.1-24,0-23.85C1217.23,244.72,1217.23,269,1232.33,268.76Z" transform="translate(-165.67 -105.8)"/><path class="cls-3" d="M1200.35,268.76c15.1.19,15.1-24,0-23.85C1185.25,244.72,1185.25,269,1200.35,268.76Z" transform="translate(-165.67 -105.8)"/><path class="cls-34" d="M1168.37,268.76c15.1.19,15.1-24,0-23.85C1153.27,244.72,1153.27,269,1168.37,268.76Z" transform="translate(-165.67 -105.8)"/><path class="cls-16" d="M1072.43,268.76c15.1.19,15.1-24,0-23.85C1057.33,244.72,1057.33,269,1072.43,268.76Z" transform="translate(-165.67 -105.8)"/><path class="cls-31" d="M1040.45,268.76c15.1.19,15.1-24,0-23.85C1025.35,244.72,1025.35,269,1040.45,268.76Z" transform="translate(-165.67 -105.8)"/><path class="cls-34" d="M1008.47,268.76c15.1.19,15.1-24,0-23.85C993.37,244.72,993.37,269,1008.47,268.76Z" transform="translate(-165.67 -105.8)"/><path class="cls-3" d="M976.49,268.76c15.1.19,15.1-24,0-23.85C961.39,244.72,961.39,269,976.49,268.76Z" transform="translate(-165.67 -105.8)"/><path class="cls-3" d="M944.51,268.76c15.1.19,15.1-24,0-23.85C929.41,244.72,929.41,269,944.51,268.76Z" transform="translate(-165.67 -105.8)"/><path class="cls-3" d="M912.53,268.76c15.1.19,15.1-24,0-23.85C897.43,244.72,897.43,269,912.53,268.76Z" transform="translate(-165.67 -105.8)"/><path class="cls-3" d="M880.55,268.76c15.1.19,15.1-24,0-23.85C865.45,244.72,865.45,269,880.55,268.76Z" transform="translate(-165.67 -105.8)"/><path class="cls-3" d="M848.57,268.76c15.1.19,15.1-24,0-23.85C833.47,244.72,833.47,269,848.57,268.76Z" transform="translate(-165.67 -105.8)"/><path class="cls-3" d="M816.59,268.76c15.1.19,15.1-24,0-23.85C801.49,244.72,801.49,269,816.59,268.76Z" transform="translate(-165.67 -105.8)"/><path class="cls-3" d="M784.61,268.76c15.1.19,15.1-24,0-23.85C769.51,244.72,769.51,269,784.61,268.76Z" transform="translate(-165.67 -105.8)"/><path class="cls-3" d="M752.63,268.76c15.1.19,15.1-24,0-23.85C737.53,244.72,737.53,269,752.63,268.76Z" transform="translate(-165.67 -105.8)"/><path class="cls-3" d="M720.65,268.76c15.1.19,15.1-24,0-23.85C705.55,244.72,705.55,269,720.65,268.76Z" transform="translate(-165.67 -105.8)"/><path class="cls-3" d="M688.67,268.76c15.1.19,15.1-24,0-23.85C673.57,244.72,673.57,269,688.67,268.76Z" transform="translate(-165.67 -105.8)"/><path class="cls-3" d="M656.69,268.76c15.1.19,15.1-24,0-23.85C641.59,244.72,641.59,269,656.69,268.76Z" transform="translate(-165.67 -105.8)"/><path class="cls-24" d="M624.71,268.76c15.1.19,15.1-24,0-23.85C609.61,244.72,609.61,269,624.71,268.76Z" transform="translate(-165.67 -105.8)"/><path class="cls-48" d="M592.73,268.76c15.1.19,15.1-24,0-23.85C577.63,244.72,577.63,269,592.73,268.76Z" transform="translate(-165.67 -105.8)"/><path class="cls-21" d="M560.75,268.76c15.1.19,15.1-24,0-23.85C545.65,244.72,545.65,269,560.75,268.76Z" transform="translate(-165.67 -105.8)"/><path class="cls-37" d="M432.83,268.76c15.1.19,15.1-24,0-23.85C417.73,244.72,417.73,269,432.83,268.76Z" transform="translate(-165.67 -105.8)"/><path class="cls-26" d="M400.85,268.76c15.1.19,15.1-24,0-23.85C385.75,244.72,385.75,269,400.85,268.76Z" transform="translate(-165.67 -105.8)"/><path class="cls-3" d="M177,268.76c15.1.19,15.1-24,0-23.85C161.89,244.72,161.89,269,177,268.76Z" transform="translate(-165.67 -105.8)"/><path class="cls-5" d="M1648.07,236.17c15.1.19,15.1-24,0-23.85C1633,212.13,1633,236.36,1648.07,236.17Z" transform="translate(-165.67 -105.8)"/><path class="cls-7" d="M1552.13,236.17c15.1.19,15.1-24,0-23.85C1537,212.13,1537,236.36,1552.13,236.17Z" transform="translate(-165.67 -105.8)"/><path class="cls-3" d="M1520.15,236.17c15.1.19,15.1-24,0-23.85C1505.05,212.13,1505.05,236.36,1520.15,236.17Z" transform="translate(-165.67 -105.8)"/><path class="cls-49" d="M1488.17,236.17c15.1.19,15.1-24,0-23.85C1473.07,212.13,1473.07,236.36,1488.17,236.17Z" transform="translate(-165.67 -105.8)"/><path class="cls-14" d="M1456.19,236.17c15.1.19,15.1-24,0-23.85C1441.09,212.13,1441.09,236.36,1456.19,236.17Z" transform="translate(-165.67 -105.8)"/><path class="cls-29" d="M1424.21,236.17c15.1.19,15.1-24,0-23.85C1409.11,212.13,1409.11,236.36,1424.21,236.17Z" transform="translate(-165.67 -105.8)"/><path class="cls-3" d="M1392.23,236.17c15.1.19,15.1-24,0-23.85C1377.13,212.13,1377.13,236.36,1392.23,236.17Z" transform="translate(-165.67 -105.8)"/><path class="cls-37" d="M1360.25,236.17c15.1.19,15.1-24,0-23.85C1345.15,212.13,1345.15,236.36,1360.25,236.17Z" transform="translate(-165.67 -105.8)"/><path class="cls-38" d="M944.51,236.17c15.1.19,15.1-24,0-23.85C929.41,212.13,929.41,236.36,944.51,236.17Z" transform="translate(-165.67 -105.8)"/><path class="cls-45" d="M912.53,236.17c15.1.19,15.1-24,0-23.85C897.43,212.13,897.43,236.36,912.53,236.17Z" transform="translate(-165.67 -105.8)"/><path class="cls-3" d="M848.57,236.17c15.1.19,15.1-24,0-23.85C833.47,212.13,833.47,236.36,848.57,236.17Z" transform="translate(-165.67 -105.8)"/><path class="cls-3" d="M816.59,236.17c15.1.19,15.1-24,0-23.85C801.49,212.13,801.49,236.36,816.59,236.17Z" transform="translate(-165.67 -105.8)"/><path class="cls-3" d="M784.61,236.17c15.1.19,15.1-24,0-23.85C769.51,212.13,769.51,236.36,784.61,236.17Z" transform="translate(-165.67 -105.8)"/><path class="cls-3" d="M752.63,236.17c15.1.19,15.1-24,0-23.85C737.53,212.13,737.53,236.36,752.63,236.17Z" transform="translate(-165.67 -105.8)"/><path class="cls-3" d="M720.65,236.17c15.1.19,15.1-24,0-23.85C705.55,212.13,705.55,236.36,720.65,236.17Z" transform="translate(-165.67 -105.8)"/><path class="cls-3" d="M688.67,236.17c15.1.19,15.1-24,0-23.85C673.57,212.13,673.57,236.36,688.67,236.17Z" transform="translate(-165.67 -105.8)"/><path class="cls-12" d="M656.69,236.17c15.1.19,15.1-24,0-23.85C641.59,212.13,641.59,236.36,656.69,236.17Z" transform="translate(-165.67 -105.8)"/><path class="cls-50" d="M624.71,236.17c15.1.19,15.1-24,0-23.85C609.61,212.13,609.61,236.36,624.71,236.17Z" transform="translate(-165.67 -105.8)"/><path class="cls-23" d="M528.77,236.17c15.1.19,15.1-24,0-23.85C513.67,212.13,513.67,236.36,528.77,236.17Z" transform="translate(-165.67 -105.8)"/><path class="cls-3" d="M177,236.17c15.1.19,15.1-24,0-23.85C161.89,212.13,161.89,236.36,177,236.17Z" transform="translate(-165.67 -105.8)"/><path class="cls-3" d="M1648.07,203.57c15.1.2,15.1-24,0-23.84C1633,179.54,1633,203.77,1648.07,203.57Z" transform="translate(-165.67 -105.8)"/><path class="cls-5" d="M1520.15,203.57c15.1.2,15.1-24,0-23.84C1505.05,179.54,1505.05,203.77,1520.15,203.57Z" transform="translate(-165.67 -105.8)"/><path class="cls-51" d="M1488.17,203.57c15.1.2,15.1-24,0-23.84C1473.07,179.54,1473.07,203.77,1488.17,203.57Z" transform="translate(-165.67 -105.8)"/><path class="cls-1" d="M1456.19,203.57c15.1.2,15.1-24,0-23.84C1441.09,179.54,1441.09,203.77,1456.19,203.57Z" transform="translate(-165.67 -105.8)"/><path class="cls-1" d="M1424.21,203.57c15.1.2,15.1-24,0-23.84C1409.11,179.54,1409.11,203.77,1424.21,203.57Z" transform="translate(-165.67 -105.8)"/><path class="cls-13" d="M1392.23,203.57c15.1.2,15.1-24,0-23.84C1377.13,179.54,1377.13,203.77,1392.23,203.57Z" transform="translate(-165.67 -105.8)"/><path class="cls-3" d="M784.61,203.57c15.1.2,15.1-24,0-23.84C769.51,179.54,769.51,203.77,784.61,203.57Z" transform="translate(-165.67 -105.8)"/><path class="cls-3" d="M752.63,203.57c15.1.2,15.1-24,0-23.84C737.53,179.54,737.53,203.77,752.63,203.57Z" transform="translate(-165.67 -105.8)"/><path class="cls-3" d="M720.65,203.57c15.1.2,15.1-24,0-23.84C705.55,179.54,705.55,203.77,720.65,203.57Z" transform="translate(-165.67 -105.8)"/><path class="cls-3" d="M688.67,203.57c15.1.2,15.1-24,0-23.84C673.57,179.54,673.57,203.77,688.67,203.57Z" transform="translate(-165.67 -105.8)"/><path class="cls-34" d="M560.75,203.57c15.1.2,15.1-24,0-23.84C545.65,179.54,545.65,203.77,560.75,203.57Z" transform="translate(-165.67 -105.8)"/><path class="cls-3" d="M209,203.57c15.1.2,15.1-24,0-23.84C193.87,179.54,193.87,203.77,209,203.57Z" transform="translate(-165.67 -105.8)"/><path class="cls-3" d="M177,203.57c15.1.2,15.1-24,0-23.84C161.89,179.54,161.89,203.77,177,203.57Z" transform="translate(-165.67 -105.8)"/><path class="cls-3" d="M1648.07,171h0" transform="translate(-165.67 -105.8)"/><path class="cls-3" d="M1616.09,171h0" transform="translate(-165.67 -105.8)"/><path class="cls-15" d="M1584.11,171c15.1.2,15.1-24,0-23.84C1569,146.94,1569,171.18,1584.11,171Z" transform="translate(-165.67 -105.8)"/><path class="cls-29" d="M1520.15,171c15.1.2,15.1-24,0-23.84C1505.05,146.94,1505.05,171.18,1520.15,171Z" transform="translate(-165.67 -105.8)"/><path class="cls-52" d="M1488.17,171c15.1.2,15.1-24,0-23.84C1473.07,146.94,1473.07,171.18,1488.17,171Z" transform="translate(-165.67 -105.8)"/><path class="cls-19" d="M1456.19,171c15.1.2,15.1-24,0-23.84C1441.09,146.94,1441.09,171.18,1456.19,171Z" transform="translate(-165.67 -105.8)"/><path class="cls-1" d="M1424.21,171c15.1.2,15.1-24,0-23.84C1409.11,146.94,1409.11,171.18,1424.21,171Z" transform="translate(-165.67 -105.8)"/><path class="cls-1" d="M1392.23,171c15.1.2,15.1-24,0-23.84C1377.13,146.94,1377.13,171.18,1392.23,171Z" transform="translate(-165.67 -105.8)"/><path class="cls-4" d="M1360.25,171c15.1.2,15.1-24,0-23.84C1345.15,146.94,1345.15,171.18,1360.25,171Z" transform="translate(-165.67 -105.8)"/><path class="cls-3" d="M752.63,171c15.1.2,15.1-24,0-23.84C737.53,146.94,737.53,171.18,752.63,171Z" transform="translate(-165.67 -105.8)"/><path class="cls-53" d="M592.73,171c15.1.2,15.1-24,0-23.84C577.63,146.94,577.63,171.18,592.73,171Z" transform="translate(-165.67 -105.8)"/><path class="cls-31" d="M368.87,171c15.1.2,15.1-24,0-23.84C353.77,146.94,353.77,171.18,368.87,171Z" transform="translate(-165.67 -105.8)"/><path class="cls-15" d="M209,171c15.1.2,15.1-24,0-23.84C193.87,146.94,193.87,171.18,209,171Z" transform="translate(-165.67 -105.8)"/><path class="cls-3" d="M177,171c15.1.2,15.1-24,0-23.84C161.89,146.94,161.89,171.18,177,171Z" transform="translate(-165.67 -105.8)"/><path class="cls-3" d="M1584.11,138.39c15.1.19,15.1-24,0-23.84C1569,114.35,1569,138.59,1584.11,138.39Z" transform="translate(-165.67 -105.8)"/><path class="cls-20" d="M1552.13,138.39c15.1.19,15.1-24,0-23.84C1537,114.35,1537,138.59,1552.13,138.39Z" transform="translate(-165.67 -105.8)"/><path class="cls-6" d="M1520.15,138.39c15.1.19,15.1-24,0-23.84C1505.05,114.35,1505.05,138.59,1520.15,138.39Z" transform="translate(-165.67 -105.8)"/><path class="cls-15" d="M1488.17,138.39c15.1.19,15.1-24,0-23.84C1473.07,114.35,1473.07,138.59,1488.17,138.39Z" transform="translate(-165.67 -105.8)"/><path class="cls-29" d="M1456.19,138.39c15.1.19,15.1-24,0-23.84C1441.09,114.35,1441.09,138.59,1456.19,138.39Z" transform="translate(-165.67 -105.8)"/><path class="cls-30" d="M1424.21,138.39c15.1.19,15.1-24,0-23.84C1409.11,114.35,1409.11,138.59,1424.21,138.39Z" transform="translate(-165.67 -105.8)"/><path class="cls-37" d="M1392.23,138.39c15.1.19,15.1-24,0-23.84C1377.13,114.35,1377.13,138.59,1392.23,138.39Z" transform="translate(-165.67 -105.8)"/><path class="cls-3" d="M752.63,138.39c15.1.19,15.1-24,0-23.84C737.53,114.35,737.53,138.59,752.63,138.39Z" transform="translate(-165.67 -105.8)"/><path class="cls-13" d="M400.85,138.39c15.1.19,15.1-24,0-23.84C385.75,114.35,385.75,138.59,400.85,138.39Z" transform="translate(-165.67 -105.8)"/><path class="cls-30" d="M368.87,138.39c15.1.19,15.1-24,0-23.84C353.77,114.35,353.77,138.59,368.87,138.39Z" transform="translate(-165.67 -105.8)"/><path class="cls-4" d="M209,138.39c15.1.19,15.1-24,0-23.84C193.87,114.35,193.87,138.59,209,138.39Z" transform="translate(-165.67 -105.8)"/><path class="cls-3" d="M177,138.39c15.1.19,15.1-24,0-23.84C161.89,114.35,161.89,138.59,177,138.39Z" transform="translate(-165.67 -105.8)"/><path class="cls-1" d="M1584.11,105.8h0" transform="translate(-165.67 -105.8)"/><path class="cls-3" d="M1552.13,105.8h0" transform="translate(-165.67 -105.8)"/><path class="cls-44" d="M1520.15,105.8h0" transform="translate(-165.67 -105.8)"/><path class="cls-3" d="M1488.17,105.8h0" transform="translate(-165.67 -105.8)"/><path class="cls-1" d="M1456.19,105.8h0" transform="translate(-165.67 -105.8)"/><path class="cls-1" d="M1424.21,105.8h0" transform="translate(-165.67 -105.8)"/><path class="cls-1" d="M1392.23,105.8h0" transform="translate(-165.67 -105.8)"/><path class="cls-1" d="M752.63,105.8h0" transform="translate(-165.67 -105.8)"/><path class="cls-15" d="M400.85,105.8h0" transform="translate(-165.67 -105.8)"/><path class="cls-1" d="M368.87,105.8h0" transform="translate(-165.67 -105.8)"/><path class="cls-3" d="M209,105.8h0" transform="translate(-165.67 -105.8)"/><path class="cls-3" d="M177,105.8h0" transform="translate(-165.67 -105.8)"/></g></svg>